<svg id="thumb_up_black_24dp" xmlns="http://www.w3.org/2000/svg" width="20" height="20" viewBox="0 0 20 20">
  <path id="Path_82" data-name="Path 82" d="M0,0H20V20H0ZM0,0H20V20H0Z" fill="none"/>
  <path id="Path_83" data-name="Path 83" d="M7.667,17.667h7.5A1.655,1.655,0,0,0,16.7,16.65l2.517-5.875a1.646,1.646,0,0,0,.117-.608V8.5a1.672,1.672,0,0,0-1.667-1.667H12.408L13.2,3.025l.025-.267a1.254,1.254,0,0,0-.367-.883L11.975,1,6.483,6.492A1.656,1.656,0,0,0,6,7.667V16A1.672,1.672,0,0,0,7.667,17.667Zm0-10L11.283,4.05,10.167,8.5h7.5v1.667L15.167,16h-7.5ZM1,7.667H4.333v10H1Z" transform="translate(-0.167 -0.167)" fill="#8c8c8c"/>
</svg>
