<svg xmlns="http://www.w3.org/2000/svg" width="16.601" height="17.57" viewBox="0 0 16.601 17.57">
  <g id="_11859183171606260004" data-name="11859183171606260004" transform="translate(-0.001 0.004)">
    <path id="Path_5" data-name="Path 5" d="M10.7,15.588a2.427,2.427,0,0,1-.28.765A2.461,2.461,0,0,1,9.876,17a2.4,2.4,0,0,1-.732.428,2.543,2.543,0,0,1-1.681,0A2.368,2.368,0,0,1,6.731,17a2.457,2.457,0,0,1-.543-.643,2.4,2.4,0,0,1-.285-.791.259.259,0,0,1,.209-.3l.046,0H10.45a.26.26,0,0,1,.26.26.377.377,0,0,1-.011.07ZM2.891.033a.51.51,0,0,1,.376.948,3.867,3.867,0,0,0-1.42.945A3.844,3.844,0,0,0,1,3.44a.51.51,0,1,1-.975-.3A4.845,4.845,0,0,1,1.1,1.229,4.88,4.88,0,0,1,2.891.033ZM13.337.981a.51.51,0,1,1,.376-.948,4.866,4.866,0,0,1,1.792,1.2,4.848,4.848,0,0,1,1.075,1.91.51.51,0,0,1-.975.3,3.824,3.824,0,0,0-.848-1.514,3.852,3.852,0,0,0-1.42-.947ZM10.283,1.7a5.744,5.744,0,0,1,.841.416l.031.02a5.7,5.7,0,0,1,.718.522,5.456,5.456,0,0,1,1.172,1.417,5.9,5.9,0,0,1,.4.838h0a5.251,5.251,0,0,1,.255.917,5.523,5.523,0,0,1,.084.967V7.848q0,.5.006.981v0h0a7.413,7.413,0,0,0,.056.869,6.91,6.91,0,0,0,.154.832h0a4.374,4.374,0,0,0,.272.761,4.925,4.925,0,0,0,.428.735h0a4.431,4.431,0,0,0,.622.7,7.284,7.284,0,0,0,.9.695.425.425,0,0,1-.237.778H.626a.426.426,0,0,1-.22-.791,7.483,7.483,0,0,0,.888-.693,4.249,4.249,0,0,0,.618-.7.108.108,0,0,1,.016-.02,5.033,5.033,0,0,0,.41-.716,4.477,4.477,0,0,0,.277-.764l0-.016a6.23,6.23,0,0,0,.15-.8,7.3,7.3,0,0,0,.053-.878V6.8a5.38,5.38,0,0,1,.087-.968,5.117,5.117,0,0,1,.256-.921,5.776,5.776,0,0,1,.4-.844A5.41,5.41,0,0,1,4.75,2.646,5.558,5.558,0,0,1,5.5,2.1,5.278,5.278,0,0,1,6.98,1.5,1.278,1.278,0,0,1,7.358.876,1.383,1.383,0,0,1,8.328.553a1.4,1.4,0,0,1,.962.332c.859.765-.21.345.992.819Z" transform="translate(0 0)" fill="#1b252c"/>
  </g>
</svg>
