<svg xmlns="http://www.w3.org/2000/svg" width="524.591" height="329.253" viewBox="0 0 524.591 329.253">
  <g id="undraw_Personal_opinions_re_qw29" transform="translate(-27.41 -80)">
    <path id="Path_54" data-name="Path 54" d="M264.139,146.4H69.7L33.551,186.666V146.4H0V0H264.139Z" transform="translate(60 80)" fill="#1b252c" opacity="0.2"/>
    <rect id="Rectangle_129" data-name="Rectangle 129" width="177.516" height="7.93" transform="translate(103.312 123.007)" fill="#fff"/>
    <rect id="Rectangle_130" data-name="Rectangle 130" width="177.516" height="7.93" transform="translate(103.312 149.238)" fill="#fff"/>
    <rect id="Rectangle_131" data-name="Rectangle 131" width="177.516" height="7.93" transform="translate(103.312 175.468)" fill="#fff"/>
    <circle id="Ellipse_39" data-name="Ellipse 39" cx="6.676" cy="6.676" r="6.676" transform="translate(27.41 197.958)" fill="#e6e6e6"/>
    <path id="Path_55" data-name="Path 55" d="M624.755,530.218h-7.48l-3.559-28.851h11.039Z" transform="translate(-158.5 -129.484)" fill="#9f616a"/>
    <path id="Path_56" data-name="Path 56" d="M850.671,720.789H826.553v-.305a9.388,9.388,0,0,1,9.387-9.387h14.732Z" transform="translate(-382.51 -312.805)" fill="#1b252c"/>
    <path id="Path_57" data-name="Path 57" d="M527.844,528.718l-7.092-2.377,5.8-28.486,10.467,3.509Z" transform="translate(-134.491 -128.577)" fill="#9f616a"/>
    <path id="Path_58" data-name="Path 58" d="M749.582,718.674l-22.866-7.667.1-.289A9.388,9.388,0,0,1,738.7,704.8h0l13.966,4.683Z" transform="translate(-356.726 -311.053)" fill="#1b252c"/>
    <path id="Path_59" data-name="Path 59" d="M765,503.6l-16.2,137.02,15.886,1.34s24.99-134.716,32.693-118.758S814.53,638.968,814.53,638.968H830.3s4.044-155.73-12.465-163.434Z" transform="translate(-362.431 -251.968)" fill="#1b252c"/>
    <circle id="Ellipse_40" data-name="Ellipse 40" cx="15.958" cy="15.958" r="15.958" transform="translate(410.356 148.924) rotate(-80.009)" fill="#9f616a"/>
    <path id="Path_60" data-name="Path 60" d="M786.082,386.879l20.36,1.651s16.233.275,22.837,4.677-6.328,31.641-6.328,31.641-3.362,10.8-.825,15.683c8.23,15.845,7.01,28.047,7.01,28.047s-16.915,3.869-46.08,11.573c0,0-18.159,7.154-17.609,3.3s6.053-47.875,6.053-47.875V389.906Z" transform="translate(-366.725 -229.072)" fill="#1b252c"/>
    <path id="Path_61" data-name="Path 61" d="M824.723,344.529c-.815-4.544-2.639-10.991-6.7-15.879.128,0,.256.006.384,0,1.4-.041,2.987-.481,3.564-1.754a3.044,3.044,0,0,0-.557-3.037,8.964,8.964,0,0,0-2.543-1.987c.98.6,2.366,1.148,3.149.31a1.7,1.7,0,0,0,.192-1.814,4.5,4.5,0,0,0-1.223-1.475,30.074,30.074,0,0,0-5.378-3.795c-1.491-.824-3.452-1.485-4.791-.432-1.363,1.074-1.145,3.164-.794,4.864a5.6,5.6,0,0,0-2.505-.756,1.918,1.918,0,0,0-1.921,1.476,1.97,1.97,0,0,0,.888,1.721c-5.262-.865-11.985.117-20.58,4.093,0,0-8.334,2.778-8.757,13.749a19.465,19.465,0,0,0,.579,5.209c.469,1.989,2.14,11.745.136,15.688l10.036,3.576.115-6.012c-7.8-11.26-3.947-15.392-.91-22.164a.072.072,0,0,1,.128-.01c.561.963,2.712,4.264,10.114,4.264l-2.86-2.86s12.585,5.148,17.161,5.148c0,0,3.432,2.288,0,5.72s-10.944,8.484-6.94,14.777,3.659,8.525,3.659,8.525l9.153-5.148s5.59-11.061,6.582-14.318a16.429,16.429,0,0,0,.624-7.683Z" transform="translate(-369.748 -210.282)" fill="#1b252c"/>
    <path id="Path_62" data-name="Path 62" d="M465.118,348.182H647.2V449.1H624.071v27.754L599.155,449.1H465.118Z" transform="translate(-120.123 -89.922)" fill="#ff2e35"/>
    <rect id="Rectangle_132" data-name="Rectangle 132" width="122.368" height="5.467" transform="translate(374.852 287.905)" fill="#fff"/>
    <rect id="Rectangle_133" data-name="Rectangle 133" width="122.368" height="5.467" transform="translate(374.852 305.987)" fill="#fff"/>
    <rect id="Rectangle_134" data-name="Rectangle 134" width="122.368" height="5.467" transform="translate(374.852 324.069)" fill="#fff"/>
    <path id="Path_63" data-name="Path 63" d="M845.382,435.125l-10.68,2.6-.081,21.614-12.012,41.459a6.71,6.71,0,1,0,10.545,3.194l14.36-42.919Z" transform="translate(-380.833 -241.532)" fill="#9f616a"/>
    <path id="Path_64" data-name="Path 64" d="M758.369,434.513l12.812,3.661.081,21.614,12.012,41.459a6.71,6.71,0,1,1-10.545,3.194l-14.36-42.919Z" transform="translate(-364.9 -241.374)" fill="#9f616a"/>
    <path id="Path_65" data-name="Path 65" d="M832.591,392.039l2.647-.863a6.023,6.023,0,0,1,4.507.313h0s7.7.55,8.8,6.053,3.777,53.6,3.777,53.6l-16.318-5.192Z" transform="translate(-384.069 -230.105)" fill="#1b252c"/>
    <path id="Path_66" data-name="Path 66" d="M775.459,392.1l-4.685-.236-1.484-.742s-8.69.977-9.79,6.48-4.3,55.084-4.3,55.084l16.318-4.45Z" transform="translate(-364.081 -230.168)" fill="#1b252c"/>
    <path id="Path_67" data-name="Path 67" d="M409.663,643.934l7.735-6.747a129.207,129.207,0,0,0-1.809-14.45l-4.268,1.806,3.96-3.455c-1.14-5.9-2.268-9.732-2.268-9.732s-15.606,13.859-24.339,30.765l3.831,12.6-5.852-8.333a52.281,52.281,0,0,0-2.224,6.181c-6.089,21.242-4.088,40.451,4.47,42.9s20.432-12.778,26.521-34.02a68.815,68.815,0,0,0,2.145-20.864Z" transform="translate(-267.416 -287.046)" fill="#d1b4bd"/>
    <path id="Path_68" data-name="Path 68" d="M431.131,668.438l10.109-1.778a129.208,129.208,0,0,0,5.92-13.3l-4.588-.661,5.176-.91c2.073-5.638,3.089-9.5,3.089-9.5s-20.523,3.8-36.738,13.755L410.866,668.8l-.7-10.158a52.293,52.293,0,0,0-5.1,4.141c-16.193,15.037-24.409,32.515-18.351,39.038s24.1-.377,40.288-15.414a68.813,68.813,0,0,0,12.621-16.752Z" transform="translate(-268.401 -295.033)" fill="#d1b4bd"/>
    <path id="Path_69" data-name="Path 69" d="M811.235,724.609H352.842a.742.742,0,0,1,0-1.484H811.235a.742.742,0,1,1,0,1.484Z" transform="translate(-259.976 -315.912)" fill="#cbcbcb"/>
  </g>
</svg>
